<svg width="71" height="37" viewBox="0 0 71 37" fill="none" xmlns="http://www.w3.org/2000/svg">
<g id="Logo-wide 1" clip-path="url(#clip0_218_25)">
<path id="Vector" d="M67.9107 17.6372L67.8736 17.6744C68.1338 16.9682 68.6541 16.708 69.1001 16.708C69.732 16.708 70.2895 17.1912 70.2895 17.8974C70.2895 18.0461 70.2895 18.2319 70.2152 18.4549C68.9143 21.8001 66.1638 23.5098 63.4877 23.77C62.2612 25.8514 60.2541 27.3753 57.3921 27.3753C53.3036 27.3753 51.4824 24.1417 51.4824 20.6107C51.4824 16.262 54.2329 11.4301 58.8417 11.4301C59.8452 11.4301 60.7001 11.6532 61.4063 11.9505C63.4877 12.731 64.8258 15.4443 64.8258 18.3434C64.8258 19.2726 64.7514 20.2018 64.5284 21.0939C65.9037 20.6107 67.2045 19.4956 67.9107 17.6372ZM60.1426 14.4779V14.4408C59.3249 14.4408 58.8417 15.5186 58.8417 16.8195C58.8417 18.7151 59.8824 20.462 61.5178 21.0939C61.778 20.2762 61.8895 19.347 61.8895 18.2691C61.8895 16.1877 61.2576 14.4779 60.1426 14.4779ZM57.4293 24.662C58.47 24.662 59.5107 24.216 60.3284 23.2868C57.9125 22.2089 56.3886 19.6815 56.3886 17.2655C56.3886 16.4478 56.5373 15.593 56.7603 14.8496C55.2736 16.0762 54.4187 18.4921 54.4187 20.6107C54.4187 23.3611 55.7196 24.662 57.4293 24.662Z" fill="black"/>
<path id="Vector_2" d="M52.0563 17.6372L52.0191 17.6744C52.2793 16.9682 52.7253 16.6709 53.1713 16.6709C53.8032 16.6709 54.435 17.2284 54.435 17.9346C54.435 18.1204 54.3979 18.2691 54.3235 18.4549C52.874 21.9859 50.7182 26.1116 47.2616 28.5275L47.1873 29.2709C46.7784 33.7311 44.5112 36.5558 41.6492 36.5558C39.4934 36.5558 38.2297 35.0691 38.2297 33.3222C38.2297 30.1629 41.4633 29.0107 44.474 27.078C44.5483 26.2974 44.5855 25.4054 44.6226 24.4018C43.1359 26.0372 41.5377 26.7063 40.1253 26.7063C37.3005 26.7063 34.9961 24.4018 34.9961 20.8709C34.9961 15.4443 38.5642 11.8762 42.5412 11.8762H42.5784C45.2917 11.8762 48.1908 13.3257 48.1908 15.9275C48.1908 16.7824 47.8191 21.4284 47.5218 25.0337C49.5288 23.1381 51.2014 20.0532 52.0563 17.6372ZM40.5341 24.0302C41.9094 24.0302 43.7678 23.1753 44.92 18.9753C45.1058 18.0461 45.2173 17.2284 45.1802 16.262C44.9572 15.2585 44.1023 14.6638 42.8757 14.6638C40.3483 14.6638 37.9324 17.0797 37.9324 20.7594C37.9324 22.9895 38.9731 24.0302 40.5341 24.0302ZM41.9465 33.8426H41.9837C42.7642 33.8426 43.6191 33.3222 44.1766 29.9771C42.5412 30.9434 41.0173 31.9098 41.0173 33.062C41.0173 33.5452 41.389 33.8426 41.9465 33.8426Z" fill="black"/>
<path id="Vector_3" d="M35.649 17.6372L35.6119 17.6744C35.872 16.9682 36.3924 16.708 36.8384 16.708C37.4703 16.708 38.0278 17.1912 38.0278 17.8974C38.0278 18.0461 38.0278 18.2319 37.9535 18.4549C36.6526 21.8001 33.9021 23.5098 31.226 23.77C29.9995 25.8514 27.9924 27.3753 25.1304 27.3753C21.0419 27.3753 19.2207 24.1417 19.2207 20.6107C19.2207 16.262 21.9711 11.4301 26.58 11.4301C27.5835 11.4301 28.4384 11.6532 29.1446 11.9505C31.226 12.731 32.5641 15.4443 32.5641 18.3434C32.5641 19.2726 32.4897 20.2018 32.2667 21.0939C33.642 20.6107 34.9428 19.4956 35.649 17.6372ZM27.8809 14.4779V14.4408C27.0632 14.4408 26.58 15.5186 26.58 16.8195C26.58 18.7151 27.6207 20.462 29.2561 21.0939C29.5163 20.2762 29.6278 19.347 29.6278 18.2691C29.6278 16.1877 28.9959 14.4779 27.8809 14.4779ZM25.1676 24.662C26.2083 24.662 27.249 24.216 28.0667 23.2868C25.6508 22.2089 24.1269 19.6815 24.1269 17.2655C24.1269 16.4478 24.2756 15.593 24.4986 14.8496C23.0119 16.0762 22.157 18.4921 22.157 20.6107C22.157 23.3611 23.4579 24.662 25.1676 24.662Z" fill="black"/>
<path id="Vector_4" d="M21.1089 16.464C20.5885 16.464 20.1425 16.7242 19.8451 17.4304C18.8788 19.8835 16.8716 24.0464 14.8273 24.0464C13.5401 24.0464 12.544 23.7553 11.5374 23.4611C10.5095 23.1607 9.47069 22.857 8.0998 22.857C7.6166 22.857 6.94756 22.9314 6.31569 23.0429C8.21927 20.4471 8.93041 17.3034 9.61949 11.3611C8.32203 11.2785 7.26662 11.0388 6.49734 10.7967C5.67569 18.3332 4.74263 21.2068 1.33505 24.0464C0.889026 24.4181 0.666016 24.9385 0.666016 25.4589C0.666016 26.2766 1.37223 26.9828 2.26429 26.9828C2.56164 26.9828 2.89615 26.8713 3.23067 26.7226C5.12629 25.8677 6.27852 25.6447 7.69094 25.6447C8.58911 25.6447 9.66385 25.9016 10.8145 26.1765C12.1399 26.4933 13.566 26.8341 14.9389 26.8341C17.9495 26.8341 19.9195 23.8978 22.1124 18.2109C22.224 18.0251 22.2611 17.8021 22.2611 17.6162C22.2611 16.91 21.7036 16.464 21.1089 16.464Z" fill="black"/>
<path id="Vector_5" fill-rule="evenodd" clip-rule="evenodd" d="M6.68617 9.25853C7.35926 9.4935 8.41008 9.76706 9.77251 9.84799L9.99552 9.84788C14.1956 9.84788 16.9461 7.24606 16.9461 4.12387C16.9461 2.11675 15.385 0.555664 13.192 0.555664C10.2557 0.555664 8.21142 2.56278 7.17069 6.53985C5.86978 5.83364 4.97773 4.5699 4.5317 2.97164C4.30868 2.19109 3.82549 1.70789 3.15644 1.70789C2.33873 1.70789 1.81836 2.33977 1.81836 3.19465C1.81836 5.72214 3.78832 8.13811 6.68749 9.25318L6.68617 9.25853ZM10.2185 7.13455C10.776 4.5699 11.6681 3.34333 12.8575 3.34333C13.4894 3.34333 13.8982 3.71502 13.8982 4.38406C13.8982 5.61063 12.5973 7.06021 10.2185 7.13455Z" fill="black"/>
</g>
<defs>
<clipPath id="clip0_218_25">
<rect width="70" height="36" fill="white" transform="translate(0.666016 0.555664)"/>
</clipPath>
</defs>
</svg>
